<svg width="180" height="181" viewBox="0 0 180 181" fill="none" xmlns="http://www.w3.org/2000/svg">
<path opacity="0.2" d="M116.54 90C116.54 104.658 104.657 116.54 90 116.54C75.342 116.54 63.46 104.657 63.46 90C63.46 75.343 75.343 63.46 90 63.46C104.658 63.46 116.54 75.343 116.54 90ZM89.988 0.0039978C44.019 0.0039978 6.102 34.46 0.655998 78.955H49.017C53.876 60.879 70.378 47.582 89.989 47.582C109.6 47.582 126.12 60.88 130.984 78.955H179.345C173.895 34.459 135.957 0.0039978 89.988 0.0039978ZM0.655998 101.054C6.102 145.55 44.02 180.005 89.988 180.005C135.957 180.005 173.894 145.549 179.344 101.054H130.983C126.119 119.13 109.599 132.427 89.988 132.427C70.377 132.427 53.875 119.129 49.016 101.054H0.655998Z" fill="url(#paint0_linear_1_3)"/>
<defs>
<linearGradient id="paint0_linear_1_3" x1="90.0005" y1="0.0039978" x2="90.0005" y2="180.005" gradientUnits="userSpaceOnUse">
<stop stop-color="white"/>
<stop offset="1" stop-color="white" stop-opacity="0.1"/>
</linearGradient>
</defs>
</svg>
